<svg width="500" height="500" viewBox="0 0 500 500" fill="none" xmlns="http://www.w3.org/2000/svg">
<path d="M291.668 104.168C281.251 114.585 260.349 112.758 229.168 87.0084M229.168 87.0084C233.78 83.2001 238.572 78.873 243.522 73.9668C291.557 26.3684 356.976 35.6876 387.626 73.9668C400.668 90.2545 426.234 121.486 412.945 197.918M229.168 87.0084C224.555 83.2001 219.764 78.873 214.814 73.9668C166.778 26.3684 101.359 35.6876 70.7092 73.9668C49.5394 100.406 -4.6339 166.222 127.963 400.827C133.452 410.539 144.389 416.668 156.168 416.668C174.959 416.668 189.646 401.67 190.257 384.166C191.205 357.012 196.455 326.779 211.114 312.502" stroke="#FEC322" stroke-width="1.8" stroke-linecap="round" stroke-linejoin="round"/>
<path d="M333.334 354.167L347.584 368.417C350.657 371.49 352.193 373.025 354.053 372.923C355.912 372.819 357.27 371.123 359.984 367.729L395.826 322.917M270.834 321.965V330.006C270.834 355.046 270.834 367.565 273.926 379.023C277.743 393.173 284.982 406.221 295.034 417.077C303.172 425.867 313.914 432.71 335.393 446.398C345.009 452.525 349.818 455.59 354.928 457.015C361.241 458.773 367.928 458.773 374.241 457.015C379.351 455.59 384.159 452.525 393.776 446.398C415.255 432.71 425.997 425.867 434.134 417.077C444.187 406.221 451.426 393.173 455.243 379.023C458.334 367.565 458.334 355.046 458.334 330.006V321.965C458.334 306.373 458.334 298.577 455.38 291.994C453.557 287.933 450.947 284.256 447.693 281.167C442.416 276.156 434.939 273.419 419.98 267.944L389.272 256.704C377.064 252.235 370.959 250 364.584 250C358.209 250 352.105 252.235 339.897 256.704L309.189 267.944C294.23 273.419 286.753 276.156 281.476 281.167C278.222 284.256 275.612 287.933 273.789 291.994C270.834 298.577 270.834 306.373 270.834 321.965Z" stroke="#FEC322" stroke-width="1.53" stroke-linecap="round" stroke-linejoin="round"/>
</svg>
